<?xml version="1.0" encoding="UTF-8" standalone="no"?>
<svg width="34px" height="30px" viewBox="0 0 34 30" version="1.1" xmlns="http://www.w3.org/2000/svg" xmlns:xlink="http://www.w3.org/1999/xlink">
    <!-- Generator: Sketch 39.1 (31720) - http://www.bohemiancoding.com/sketch -->
    <title>arrival icon</title>
    <desc>Created with Sketch.</desc>
    <defs></defs>
    <g id="Page-1" stroke="none" stroke-width="1" fill="none" fill-rule="evenodd">
        <g id="Pre-flight-detail" transform="translate(-203.000000, -392.000000)" fill="#383838">
            <g id="arrival-icon" transform="translate(201.000000, 387.000000)">
                <path d="M16.3791274,21.9994638 C12.8139569,23.1987321 9.40187716,24.3465714 5.98996829,25.4947525 C5.96314322,25.5038081 5.93853934,25.5208941 5.91137256,25.5275577 C5.30806492,25.6753518 4.59848219,26.1802439 4.19251817,25.3244048 C3.8156004,24.5295628 4.5072428,24.2209891 5.07620752,23.9515425 C5.60177374,23.702599 5.2720134,23.4705708 5.09158495,23.2423015 C3.90991527,21.7471032 2.72175291,20.2568598 1.53683689,18.7640536 C1.18127665,18.3158871 0.754125957,17.8694292 1.22057451,17.2603123 C1.6584894,16.6886138 2.89466351,16.303153 3.42228004,16.5785798 C5.21033284,17.5119895 6.99650618,18.4494998 8.76986499,19.410418 C9.22947914,19.6595323 9.59648701,19.7087401 10.0967659,19.442198 C15.2111266,16.7174892 20.3769162,14.0870952 25.4523207,11.2923337 C27.6998168,10.0546218 30.0429946,9.55878531 32.5443891,9.52990992 C32.9394181,9.5252967 33.3339344,9.52751788 33.725717,9.65139158 C35.0302353,10.0643609 35.3634128,11.0574008 34.5260266,12.1391172 C33.9199852,12.921999 33.0909711,13.4287706 32.2346194,13.8844549 C29.777136,15.1922195 27.3148686,16.4909285 24.8498674,17.7841699 C24.4158823,18.0119267 24.0461406,18.2996554 23.7098876,18.6589745 C21.8041121,20.6951164 19.8826174,22.7165644 17.9696657,24.7460428 C17.2043826,25.5577999 16.1385562,25.8656901 15.2058299,26.3946736 C14.9553487,26.5366585 14.6430162,26.4831792 14.4287574,26.2294517 C14.1912616,25.9482157 14.2344892,25.6468181 14.4063747,25.3594311 C14.9898625,24.383819 15.5825768,23.4138452 16.1691401,22.4401125 C16.2274035,22.3435764 16.2673848,22.2359344 16.3791274,21.9994638" id="Fill-3" transform="translate(18.000241, 18.000241) rotate(-315.000000) translate(-18.000241, -18.000241) "></path>
                <path d="M18.6947067,34.1321096 C13.7137879,34.1321096 8.73286911,34.1363812 3.75212118,34.129205 C2.50022793,34.1273256 1.78534853,33.2819089 2.05752895,32.167729 C2.24889246,31.3843347 2.78146394,31.0157891 3.80337926,31.012201 C6.82025917,31.0012659 9.83730994,31.0016077 12.8541899,31.0010951 C19.7135465,30.9997282 26.5729032,30.9992156 33.432089,31.0021202 C34.6221309,31.0026328 35.2806264,31.4624178 35.3869015,32.3406396 C35.5118003,33.372294 34.837244,34.1252752 33.7227224,34.1334765 C31.3889418,34.1503917 29.0549905,34.1394566 26.7210391,34.1396275 C24.045538,34.1397984 21.3702078,34.1396275 18.6947067,34.1396275 L18.6947067,34.1321096" id="Fill-4"></path>
            </g>
        </g>
    </g>
</svg>