<?xml version="1.0" encoding="UTF-8" standalone="no"?>
<svg width="35px" height="25px" viewBox="0 0 35 25" version="1.1" xmlns="http://www.w3.org/2000/svg" xmlns:xlink="http://www.w3.org/1999/xlink">
    <!-- Generator: Sketch 39.1 (31720) - http://www.bohemiancoding.com/sketch -->
    <title>depature icon</title>
    <desc>Created with Sketch.</desc>
    <defs></defs>
    <g id="Page-1" stroke="none" stroke-width="1" fill="none" fill-rule="evenodd">
        <g id="Pre-flight-detail" transform="translate(-36.000000, -397.000000)" fill="#383838">
            <g id="depature-icon" transform="translate(36.000000, 397.000000)">
                <path d="M15.3635132,12.470781 C11.7983427,13.6700493 8.38626293,14.8178886 4.97435406,15.9660697 C4.947529,15.9751253 4.92292512,15.9922113 4.89575833,15.9988749 C4.2924507,16.146669 3.58286797,16.6515611 3.17690395,15.795722 C2.79998618,15.00088 3.49162858,14.6923063 4.0605933,14.4228597 C4.58615951,14.1739162 4.25639918,13.941888 4.07597072,13.7136187 C2.89430105,12.2184204 1.70613868,10.728177 0.521222662,9.2353708 C0.165662426,8.78720429 -0.261488267,8.34074639 0.20496029,7.7316295 C0.642875179,7.15993102 1.87904928,6.77447023 2.40666582,7.049897 C4.19471862,7.98330669 5.98089195,8.92081703 7.75425077,9.88173523 C8.21386491,10.1308495 8.58087279,10.1800573 9.08115168,9.91351524 C14.1955123,7.1888064 19.361302,4.55841244 24.4367065,1.76365089 C26.6842026,0.525939042 29.0273804,0.0301025184 31.5287749,0.00122713162 C31.9238038,-0.00338609585 32.3183202,-0.00116491225 32.7101028,0.122708789 C34.014621,0.535678078 34.3477986,1.52871801 33.5104124,2.61043442 C32.904371,3.39331621 32.0753569,3.90008779 31.2190052,4.35577215 C28.7615218,5.66353671 26.2992544,6.96224568 23.8342532,8.25548711 C23.4002681,8.48324386 23.0305264,8.77097257 22.6942734,9.13029173 C20.7884979,11.1664337 18.8670032,13.1878816 16.9540515,15.21736 C16.1887683,16.0291171 15.1229419,16.3370074 14.1902157,16.8659908 C13.9397345,17.0079757 13.6274019,16.9544964 13.4131431,16.7007689 C13.1756474,16.4195329 13.218875,16.1181353 13.3907604,15.8307484 C13.9742483,14.8551362 14.5669626,13.8851624 15.1535259,12.9114297 C15.2117893,12.8148936 15.2517706,12.7072516 15.3635132,12.470781" id="Fill-1"></path>
                <path d="M17.6947067,24.1321096 C12.7137879,24.1321096 7.73286911,24.1363812 2.75212118,24.129205 C1.50022793,24.1273256 0.78534853,23.2819089 1.05752895,22.167729 C1.24889246,21.3843347 1.78146394,21.0157891 2.80337926,21.012201 C5.82025917,21.0012659 8.83730994,21.0016077 11.8541899,21.0010951 C18.7135465,20.9997282 25.5729032,20.9992156 32.432089,21.0021202 C33.6221309,21.0026328 34.2806264,21.4624178 34.3869015,22.3406396 C34.5118003,23.372294 33.837244,24.1252752 32.7227224,24.1334765 C30.3889418,24.1503917 28.0549905,24.1394566 25.7210391,24.1396275 C23.045538,24.1397984 20.3702078,24.1396275 17.6947067,24.1396275 L17.6947067,24.1321096" id="Fill-2"></path>
            </g>
        </g>
    </g>
</svg>