<?xml version="1.0" encoding="UTF-8" standalone="no"?>
<svg width="24px" height="21px" viewBox="0 0 24 21" version="1.1" xmlns="http://www.w3.org/2000/svg" xmlns:xlink="http://www.w3.org/1999/xlink">
    <!-- Generator: Sketch 39.1 (31720) - http://www.bohemiancoding.com/sketch -->
    <title>Home</title>
    <desc>Created with Sketch.</desc>
    <defs></defs>
    <g id="Page-1" stroke="none" stroke-width="1" fill="none" fill-rule="evenodd">
        <g id="Joey" transform="translate(-30.000000, -624.000000)" fill="#888888">
            <g id="Bottom-Bar/Tab-Bar" transform="translate(0.000000, 606.000000)">
                <g id="Home" transform="translate(30.000000, 18.000000)">
                    <path d="M3.14914286,20.05584 C3.14914286,20.05584 3.12857143,20.5632 3.63428571,20.5632 C4.26342857,20.5632 9.47228571,20.55648 9.47228571,20.55648 L9.48085714,15.86844 C9.48085714,15.86844 9.39857143,15.09564 10.164,15.09564 L12.5862857,15.09564 C13.4914286,15.09564 13.4357143,15.86844 13.4357143,15.86844 L13.4254286,20.54136 L19.14,20.54136 C19.782,20.54136 19.7528571,19.90968 19.7528571,19.90968 L19.7528571,11.26692 L11.6991429,4.2462 L3.14914286,11.26692 C3.14914286,11.26692 3.14914286,20.05584 3.14914286,20.05584 Z M0,10.6134 C0,10.6134 0.726,11.92464 2.30914286,10.6134 L11.7702857,2.76948 L20.6408571,10.56468 C22.4734286,11.85996 23.16,10.56468 23.16,10.56468 L11.7702857,0.4536 L0,10.6134 Z M20.4257143,2.751 L18.144,2.751 L18.1534286,5.46252 L20.4257143,7.35168 L20.4257143,2.751 Z" id="Combined-Shape"></path>
                </g>
            </g>
        </g>
    </g>
</svg>