<?xml version="1.0" encoding="UTF-8" standalone="no"?>
<svg width="68px" height="61px" viewBox="0 0 68 61" version="1.1" xmlns="http://www.w3.org/2000/svg" xmlns:xlink="http://www.w3.org/1999/xlink">
    <!-- Generator: Sketch 39.1 (31720) - http://www.bohemiancoding.com/sketch -->
    <title>joey</title>
    <desc>Created with Sketch.</desc>
    <defs></defs>
    <g id="Page-1" stroke="none" stroke-width="1" fill="none" fill-rule="evenodd">
        <g id="Joey" transform="translate(-154.000000, -606.000000)" fill="#EC0009">
            <g id="Bottom-Bar/Tab-Bar" transform="translate(0.000000, 606.000000)">
                <g id="joey" transform="translate(154.000000, 0.000000)">
                    <path d="M44.0633096,43.5362282 C59.185903,49.6053651 68.9873779,58.2829171 67.920832,61 C66.5532736,60.0762746 54.4172005,46.9334241 35.1212126,45.9727381 C35.1212126,45.9727381 35.17418,45.7423121 35.2247486,45.3605787 C36.4430961,36.0013739 31.7895402,30.2145426 26.6906546,27.0219773 C18.032586,21.6010941 7.33738123,19.9630865 0.247322164,1.48184036 C-0.259515011,-0.135184458 0.125842447,-0.243371118 0.400755076,0.281295684 C12.2532796,22.9346583 29.6353383,9.90422961 46.6099697,31.1983289 C46.6099697,31.1983289 48.7291478,31.2406796 50.2722089,28.1906627 C50.2722089,28.1906627 46.8390155,28.0560069 46.5301347,25.4755048 C46.5301347,25.4755048 53.5985078,26.6105985 57.9465413,29.8802612 C57.9465413,29.8802612 58.0480622,31.4175898 53.153466,31.6174078 C51.8782168,31.6694799 51.4035247,32.2716291 50.4725641,33.4514797 C46.6482559,38.2984154 42.6046894,38.7201893 40.8354611,37.6941486 C40.6808767,37.6045385 40.5954763,37.4385047 40.5989307,37.3498571 C40.6064152,37.0431998 40.9896616,37.0377135 41.36005,37.1435901 C41.8173741,37.2743959 43.6944565,37.5868282 44.7586994,36.3124586 C44.7612902,36.3098598 44.7566843,36.3158274 44.7586994,36.3124586 C44.1144539,35.7520825 43.3343353,35.2489761 41.9486413,35.4102935 C40.1890086,35.6155979 39.003286,37.3665086 39.0717023,38.6650372 C39.137048,39.9076438 39.3427767,41.6413254 44.0633096,43.5362282" id="Fill-1"></path>
                </g>
            </g>
        </g>
    </g>
</svg>