<?xml version="1.0" encoding="UTF-8" standalone="no"?>
<svg width="26px" height="6px" viewBox="0 0 26 6" version="1.1" xmlns="http://www.w3.org/2000/svg" xmlns:xlink="http://www.w3.org/1999/xlink">
    <!-- Generator: Sketch 39.1 (31720) - http://www.bohemiancoding.com/sketch -->
    <title>more</title>
    <desc>Created with Sketch.</desc>
    <defs></defs>
    <g id="Page-1" stroke="none" stroke-width="1" fill="none" fill-rule="evenodd">
        <g id="Joey" transform="translate(-325.000000, -635.000000)" fill="#888888">
            <g id="Bottom-Bar/Tab-Bar" transform="translate(0.000000, 606.000000)">
                <g id="more" transform="translate(325.000000, 29.000000)">
                    <path d="M3.04761905,5.92857143 C1.66709273,5.92857143 0.547619048,4.80909774 0.547619048,3.42857143 C0.547619048,2.04804511 1.66709273,0.928571429 3.04761905,0.928571429 C4.42814536,0.928571429 5.54761905,2.04804511 5.54761905,3.42857143 C5.54761905,4.80909774 4.42814536,5.92857143 3.04761905,5.92857143 Z" id="Stroke-1"></path>
                    <path d="M13.047619,5.92857143 C11.6670927,5.92857143 10.547619,4.80909774 10.547619,3.42857143 C10.547619,2.04804511 11.6670927,0.928571429 13.047619,0.928571429 C14.4281454,0.928571429 15.547619,2.04804511 15.547619,3.42857143 C15.547619,4.80909774 14.4281454,5.92857143 13.047619,5.92857143 Z" id="Stroke-1"></path>
                    <path d="M23.047619,5.92857143 C21.6670927,5.92857143 20.547619,4.80909774 20.547619,3.42857143 C20.547619,2.04804511 21.6670927,0.928571429 23.047619,0.928571429 C24.4281454,0.928571429 25.547619,2.04804511 25.547619,3.42857143 C25.547619,4.80909774 24.4281454,5.92857143 23.047619,5.92857143 Z" id="Stroke-1"></path>
                </g>
            </g>
        </g>
    </g>
</svg>