<?xml version="1.0" encoding="UTF-8" standalone="no"?>
<svg width="22px" height="20px" viewBox="0 0 22 20" version="1.1" xmlns="http://www.w3.org/2000/svg" xmlns:xlink="http://www.w3.org/1999/xlink">
    <!-- Generator: Sketch 39.1 (31720) - http://www.bohemiancoding.com/sketch -->
    <title>offers</title>
    <desc>Created with Sketch.</desc>
    <defs></defs>
    <g id="Page-1" stroke="none" stroke-width="1" fill="none" fill-rule="evenodd">
        <g id="Joey" transform="translate(-249.000000, -629.000000)">
            <g id="Bottom-Bar/Tab-Bar" transform="translate(0.000000, 606.000000)">
                <g id="offers" transform="translate(260.000000, 33.000000) scale(-1, 1) translate(-260.000000, -33.000000) translate(249.000000, 23.000000)">
                    <path d="M12.4306568,19.51298 C12.4306568,19.51298 11.1011767,-0.0802618748 11.5874326,0.405314622 L21.7176984,9.54871304 C22.3681253,10.1980731 21.7780795,11.8405124 21.1225687,12.4932277 L14.7920912,19.51298 C14.1378318,20.16234 13.0815529,20.16234 12.4306568,19.51298 Z" id="Shape" fill="#888888"></path>
                    <path d="M13.7920912,19.51298 C13.1378318,20.16234 12.0815529,20.16234 11.4306568,19.51298 L2.23152757,10.905565 C1.71719289,10.4242801 1.10415226,9.51227334 1.0599614,8.81024349 C0.941701963,6.91100969 1.02507799,3.27429689 1.08295629,1.34619224 C1.10376119,0.643460126 1.69599692,0.0543387129 2.40086069,0.0381866423 C4.86991744,-0.0190868831 10.1011767,-0.0802618748 10.5874326,0.405314622 L20.7176984,9.54871304 C21.3681253,10.1980731 20.7780795,11.8405124 20.1225687,12.4932277 L13.7920912,19.51298 L13.7920912,19.51298 Z M5.73097439,2.83124637 C5.17925346,2.28207598 4.28714559,2.28207598 3.73495538,2.83124637 C3.18448587,3.38213342 3.18448587,4.27166773 3.73495538,4.82083813 C4.28753666,5.37047671 5.17964453,5.37047671 5.73097439,4.82083813 C6.28191318,4.27166773 6.28191318,3.38166524 5.73097439,2.83124637 L5.73097439,2.83124637 Z" id="Shape" fill="#FFFFFF"></path>
                    <path d="M12.7920912,19.51298 C12.1378318,20.16234 11.0815529,20.16234 10.4306568,19.51298 L1.23152757,10.905565 C0.717192893,10.4242801 0.104152256,9.51227334 0.0599613965,8.81024349 C-0.0582980374,6.91100969 0.0250779921,3.27429689 0.0829562864,1.34619224 C0.103761187,0.643460126 0.695996923,0.0543387129 1.40086069,0.0381866423 C3.86991744,-0.0190868831 9.10117669,-0.0802618748 9.58743257,0.405314622 L19.7176984,9.54871304 C20.3681253,10.1980731 19.7780795,11.8405124 19.1225687,12.4932277 L12.7920912,19.51298 L12.7920912,19.51298 Z M4.73097439,2.83124637 C4.17925346,2.28207598 3.28714559,2.28207598 2.73495538,2.83124637 C2.18448587,3.38213342 2.18448587,4.27166773 2.73495538,4.82083813 C3.28753666,5.37047671 4.17964453,5.37047671 4.73097439,4.82083813 C5.28191318,4.27166773 5.28191318,3.38166524 4.73097439,2.83124637 L4.73097439,2.83124637 Z" id="Shape" fill="#888888"></path>
                </g>
            </g>
        </g>
    </g>
</svg>